{
    "asset" : {
        "generator" : "Khronos glTF Blender I/O v1.2.75",
        "version" : "2.0"
    },
    "scene" : 0,
    "scenes" : [
        {
            "name" : "Scene",
            "nodes" : [
                0,
                1,
                2,
                3,
                4
            ]
        }
    ],
    "nodes" : [
        {
            "mesh" : 0,
            "name" : "FRAME"
        },
        {
            "name" : "BACKWHEEL",
            "translation" : [
                1.1129499673843384,
                0.1171381026506424,
                0
            ]
        },
        {
            "name" : "HANDLEBAR",
            "rotation" : [
                0,
                0,
                -0.15359999239444733,
                0.9881330728530884
            ],
            "translation" : [
                -1.0338952541351318,
                1.4829096794128418,
                0
            ]
        },
        {
            "name" : "SEATPOST",
            "rotation" : [
                0,
                0,
                -0.1541586071252823,
                0.9880462288856506
            ],
            "translation" : [
                0.44256263971328735,
                1.4331086874008179,
                0
            ]
        },
        {
            "name" : "FRONTWHEEL",
            "translation" : [
                -1.5391154289245605,
                0.14362846314907074,
                0
            ]
        }
    ],
    "materials" : [
        {
            "doubleSided" : true,
            "emissiveFactor" : [
                0,
                0,
                0
            ],
            "name" : "Material.003",
            "pbrMetallicRoughness" : {
                "baseColorFactor" : [
                    0.5894170999526978,
                    0,
                    0.030796680599451065,
                    1
                ],
                "metallicFactor" : 0,
                "roughnessFactor" : 0.5
            }
        }
    ],
    "meshes" : [
        {
            "name" : "BezierCurve.001",
            "primitives" : [
                {
                    "attributes" : {
                        "POSITION" : 0,
                        "NORMAL" : 1,
                        "TEXCOORD_0" : 2
                    },
                    "indices" : 3,
                    "material" : 0
                }
            ]
        }
    ],
    "accessors" : [
        {
            "bufferView" : 0,
            "componentType" : 5126,
            "count" : 2767,
            "max" : [
                1.132267713546753,
                1.4983893632888794,
                0.13831569254398346
            ],
            "min" : [
                -1.5491719245910645,
                -0.5818800330162048,
                -0.13831551373004913
            ],
            "type" : "VEC3"
        },
        {
            "bufferView" : 1,
            "componentType" : 5126,
            "count" : 2767,
            "type" : "VEC3"
        },
        {
            "bufferView" : 2,
            "componentType" : 5126,
            "count" : 2767,
            "type" : "VEC2"
        },
        {
            "bufferView" : 3,
            "componentType" : 5123,
            "count" : 9216,
            "type" : "SCALAR"
        }
    ],
    "bufferViews" : [
        {
            "buffer" : 0,
            "byteLength" : 33204,
            "byteOffset" : 0
        },
        {
            "buffer" : 0,
            "byteLength" : 33204,
            "byteOffset" : 33204
        },
        {
            "buffer" : 0,
            "byteLength" : 22136,
            "byteOffset" : 66408
        },
        {
            "buffer" : 0,
            "byteLength" : 18432,
            "byteOffset" : 88544
        }
    ],
    "buffers" : [
        {
            "byteLength" : 106976,
            "uri" : "data:application/octet-stream;base64,"
        }
    ]
}
