{
    "asset" : {
        "generator" : "Khronos glTF Blender I/O v1.2.75",
        "version" : "2.0"
    },
    "scene" : 0,
    "scenes" : [
        {
            "name" : "Scene",
            "nodes" : [
                0
            ]
        }
    ],
    "nodes" : [
        {
            "mesh" : 0,
            "name" : "SEATPOST"
        }
    ],
    "materials" : [
        {
            "doubleSided" : true,
            "emissiveFactor" : [
                0,
                0,
                0
            ],
            "name" : "Material.005",
            "pbrMetallicRoughness" : {
                "baseColorFactor" : [
                    0.24763070046901703,
                    0.06326664984226227,
                    0.015445258468389511,
                    1
                ],
                "metallicFactor" : 0,
                "roughnessFactor" : 0.5
            }
        }
    ],
    "meshes" : [
        {
            "name" : "Plane.002",
            "primitives" : [
                {
                    "attributes" : {
                        "POSITION" : 0,
                        "NORMAL" : 1,
                        "TEXCOORD_0" : 2
                    },
                    "indices" : 3,
                    "material" : 0
                }
            ]
        }
    ],
    "accessors" : [
        {
            "bufferView" : 0,
            "componentType" : 5126,
            "count" : 12246,
            "max" : [
                0.31668442487716675,
                0.5347064733505249,
                0.19409427046775818
            ],
            "min" : [
                -0.3131469488143921,
                -0.00886416994035244,
                -0.19411900639533997
            ],
            "type" : "VEC3"
        },
        {
            "bufferView" : 1,
            "componentType" : 5126,
            "count" : 12246,
            "type" : "VEC3"
        },
        {
            "bufferView" : 2,
            "componentType" : 5126,
            "count" : 12246,
            "type" : "VEC2"
        },
        {
            "bufferView" : 3,
            "componentType" : 5123,
            "count" : 51738,
            "type" : "SCALAR"
        }
    ],
    "bufferViews" : [
        {
            "buffer" : 0,
            "byteLength" : 146952,
            "byteOffset" : 0
        },
        {
            "buffer" : 0,
            "byteLength" : 146952,
            "byteOffset" : 146952
        },
        {
            "buffer" : 0,
            "byteLength" : 97968,
            "byteOffset" : 293904
        },
        {
            "buffer" : 0,
            "byteLength" : 103476,
            "byteOffset" : 391872
        }
    ],
    "buffers" : [
        {
            "byteLength" : 495348,
            "uri" : "data:application/octet-stream;base64,"
        }
    ]
}
