{
    "asset" : {
        "generator" : "Khronos glTF Blender I/O v1.2.75",
        "version" : "2.0"
    },
    "scene" : 0,
    "scenes" : [
        {
            "name" : "Scene",
            "nodes" : [
                0
            ]
        }
    ],
    "nodes" : [
        {
            "mesh" : 0,
            "name" : "HANDLEBAR"
        }
    ],
    "materials" : [
        {
            "doubleSided" : true,
            "emissiveFactor" : [
                0,
                0,
                0
            ],
            "name" : "Material.001",
            "pbrMetallicRoughness" : {
                "baseColorFactor" : [
                    0.05526527762413025,
                    0.22794382274150848,
                    0.25854572653770447,
                    1
                ],
                "metallicFactor" : 0,
                "roughnessFactor" : 0.5
            }
        }
    ],
    "meshes" : [
        {
            "name" : "Point.001",
            "primitives" : [
                {
                    "attributes" : {
                        "POSITION" : 0,
                        "NORMAL" : 1,
                        "TEXCOORD_0" : 2
                    },
                    "indices" : 3,
                    "material" : 0
                }
            ]
        }
    ],
    "accessors" : [
        {
            "bufferView" : 0,
            "componentType" : 5126,
            "count" : 723,
            "max" : [
                0.033566661179065704,
                0.22011065483093262,
                0.7307395339012146
            ],
            "min" : [
                -0.26833677291870117,
                -0.0019240230321884155,
                -0.7307395339012146
            ],
            "type" : "VEC3"
        },
        {
            "bufferView" : 1,
            "componentType" : 5126,
            "count" : 723,
            "type" : "VEC3"
        },
        {
            "bufferView" : 2,
            "componentType" : 5126,
            "count" : 723,
            "type" : "VEC2"
        },
        {
            "bufferView" : 3,
            "componentType" : 5123,
            "count" : 2964,
            "type" : "SCALAR"
        }
    ],
    "bufferViews" : [
        {
            "buffer" : 0,
            "byteLength" : 8676,
            "byteOffset" : 0
        },
        {
            "buffer" : 0,
            "byteLength" : 8676,
            "byteOffset" : 8676
        },
        {
            "buffer" : 0,
            "byteLength" : 5784,
            "byteOffset" : 17352
        },
        {
            "buffer" : 0,
            "byteLength" : 5928,
            "byteOffset" : 23136
        }
    ],
    "buffers" : [
        {
            "byteLength" : 29064,
            "uri" : "data:application/octet-stream;base64,"
        }
    ]
}
