{
    "asset" : {
        "generator" : "Khronos glTF Blender I/O v1.6.16",
        "version" : "2.0"
    },
    "scene" : 0,
    "scenes" : [
        {
            "name" : "Scene",
            "nodes" : [
                0,
                1,
                2,
                3,
                4
            ]
        }
    ],
    "nodes" : [
        {
            "mesh" : 0,
            "name" : "Cylinder"
        },
        {
            "name" : "Empty.002",
            "translation" : [
                -1.638202428817749,
                0.16668516397476196,
                0
            ]
        },
        {
            "name" : "Empty.003",
            "translation" : [
                1.0964758396148682,
                0.0677158460021019,
                0
            ]
        },
        {
            "name" : "Empty.004",
            "rotation" : [
                0,
                0,
                -0.1541586071252823,
                0.9880462288856506
            ],
            "translation" : [
                0.45057088136672974,
                1.3907793760299683,
                0
            ]
        },
        {
            "name" : "Empty.005",
            "rotation" : [
                0,
                0,
                -0.19329793751239777,
                0.98114013671875
            ],
            "translation" : [
                -1.0521998405456543,
                1.4428684711456299,
                0
            ]
        }
    ],
    "meshes" : [
        {
            "name" : "Cylinder.002",
            "primitives" : [
                {
                    "attributes" : {
                        "POSITION" : 0,
                        "NORMAL" : 1,
                        "TEXCOORD_0" : 2
                    },
                    "indices" : 3
                }
            ]
        }
    ],
    "accessors" : [
        {
            "bufferView" : 0,
            "componentType" : 5126,
            "count" : 1968,
            "max" : [
                1.133797287940979,
                1.4652420282363892,
                0.13101722300052643
            ],
            "min" : [
                -1.6605161428451538,
                -0.05039244890213013,
                -0.13101743161678314
            ],
            "type" : "VEC3"
        },
        {
            "bufferView" : 1,
            "componentType" : 5126,
            "count" : 1968,
            "type" : "VEC3"
        },
        {
            "bufferView" : 2,
            "componentType" : 5126,
            "count" : 1968,
            "type" : "VEC2"
        },
        {
            "bufferView" : 3,
            "componentType" : 5123,
            "count" : 7152,
            "type" : "SCALAR"
        }
    ],
    "bufferViews" : [
        {
            "buffer" : 0,
            "byteLength" : 23616,
            "byteOffset" : 0
        },
        {
            "buffer" : 0,
            "byteLength" : 23616,
            "byteOffset" : 23616
        },
        {
            "buffer" : 0,
            "byteLength" : 15744,
            "byteOffset" : 47232
        },
        {
            "buffer" : 0,
            "byteLength" : 14304,
            "byteOffset" : 62976
        }
    ],
    "buffers" : [
        {
            "byteLength" : 77280,
            "uri" : "data:application/octet-stream;base64,"
        }
    ]
}
