{
    "asset" : {
        "generator" : "Khronos glTF Blender I/O v1.2.75",
        "version" : "2.0"
    },
    "scene" : 0,
    "scenes" : [
        {
            "name" : "Scene",
            "nodes" : [
                0
            ]
        }
    ],
    "nodes" : [
        {
            "mesh" : 0,
            "name" : "FRONTWHEEL"
        }
    ],
    "meshes" : [
        {
            "name" : "Cylinder.011",
            "primitives" : [
                {
                    "attributes" : {
                        "POSITION" : 0,
                        "NORMAL" : 1,
                        "TEXCOORD_0" : 2
                    },
                    "indices" : 3
                }
            ]
        }
    ],
    "accessors" : [
        {
            "bufferView" : 0,
            "componentType" : 5126,
            "count" : 9965,
            "max" : [
                0.9183698892593384,
                0.9178094267845154,
                0.13423286378383636
            ],
            "min" : [
                -0.9199545383453369,
                -0.920514702796936,
                -0.14805403351783752
            ],
            "type" : "VEC3"
        },
        {
            "bufferView" : 1,
            "componentType" : 5126,
            "count" : 9965,
            "type" : "VEC3"
        },
        {
            "bufferView" : 2,
            "componentType" : 5126,
            "count" : 9965,
            "type" : "VEC2"
        },
        {
            "bufferView" : 3,
            "componentType" : 5123,
            "count" : 48528,
            "type" : "SCALAR"
        }
    ],
    "bufferViews" : [
        {
            "buffer" : 0,
            "byteLength" : 119580,
            "byteOffset" : 0
        },
        {
            "buffer" : 0,
            "byteLength" : 119580,
            "byteOffset" : 119580
        },
        {
            "buffer" : 0,
            "byteLength" : 79720,
            "byteOffset" : 239160
        },
        {
            "buffer" : 0,
            "byteLength" : 97056,
            "byteOffset" : 318880
        }
    ],
    "buffers" : [
        {
            "byteLength" : 415936,
            "uri" : "data:application/octet-stream;base64,"
        }
    ]
}
