<svg id="Layer_1" data-name="Layer 1" xmlns="http://www.w3.org/2000/svg" xmlns:xlink="http://www.w3.org/1999/xlink" viewBox="0 0 356.96 277.2"><defs><style>.cls-1{opacity:0;}.cls-2{fill:#fff;}.cls-3{opacity:0.01;}.cls-4{opacity:0.01;}.cls-5{opacity:0.01;}.cls-6{opacity:0.01;}.cls-7{opacity:0.02;}.cls-8{opacity:0.02;}.cls-9{opacity:0.02;}.cls-10{opacity:0.03;}.cls-11{opacity:0.03;}.cls-12{opacity:0.03;}.cls-13{opacity:0.03;}.cls-14{opacity:0.04;}.cls-15{opacity:0.04;}.cls-16{opacity:0.04;}.cls-17{opacity:0.05;}.cls-18{fill:url(#linear-gradient);}</style><linearGradient id="linear-gradient" x1="178.26" y1="277.49" x2="178.26" y2="85.68" gradientUnits="userSpaceOnUse"><stop offset="0" stop-color="#c7c7c7"/><stop offset="0.04" stop-color="#cecece"/><stop offset="0.22" stop-color="#e5e5e5"/><stop offset="0.38" stop-color="#f2f2f2"/><stop offset="0.52" stop-color="#f7f7f7"/><stop offset="0.65" stop-color="#f0f0f0"/><stop offset="0.85" stop-color="#dbdbdb"/><stop offset="1" stop-color="#c7c7c7"/></linearGradient></defs><g class="cls-1"><path class="cls-2" d="M366.34,249.36H68.1a29.4,29.4,0,0,1-29.36-29.44V34.5A29.4,29.4,0,0,1,68.1,5.06H366.34A29.4,29.4,0,0,1,395.7,34.5V219.92A29.4,29.4,0,0,1,366.34,249.36ZM97.45,190.48H337V63.94H97.45Z" transform="translate(-38.74 -5.06)"/></g><g class="cls-1"><path class="cls-2" d="M366.34,248.52H68.1a28.55,28.55,0,0,1-28.52-28.6V34.5A28.55,28.55,0,0,1,68.1,5.9H366.34a28.56,28.56,0,0,1,28.52,28.6V219.92A28.56,28.56,0,0,1,366.34,248.52ZM96.61,191.32H337.82V63.1H96.61Z" transform="translate(-38.74 -5.06)"/></g><g class="cls-3"><path class="cls-2" d="M366.34,247.68H68.1a27.73,27.73,0,0,1-27.69-27.76V34.5A27.73,27.73,0,0,1,68.1,6.74H366.34A27.72,27.72,0,0,1,394,34.5V219.92A27.72,27.72,0,0,1,366.34,247.68ZM95.78,192.16H338.66V62.26H95.78Z" transform="translate(-38.74 -5.06)"/></g><g class="cls-3"><path class="cls-2" d="M366.34,246.84H68.1a26.88,26.88,0,0,1-26.85-26.92V34.5A26.88,26.88,0,0,1,68.1,7.58H366.34A26.87,26.87,0,0,1,393.18,34.5V219.92A26.87,26.87,0,0,1,366.34,246.84ZM94.94,193H339.5V61.41H94.94Z" transform="translate(-38.74 -5.06)"/></g><g class="cls-4"><path class="cls-2" d="M366.34,246H68.1a26,26,0,0,1-26-26.08V34.5a26,26,0,0,1,26-26.08H366.34a26,26,0,0,1,26,26.08V219.92A26,26,0,0,1,366.34,246ZM94.1,193.85H340.34V60.57H94.1Z" transform="translate(-38.74 -5.06)"/></g><g class="cls-4"><path class="cls-2" d="M366.34,245.16H68.1a25.21,25.21,0,0,1-25.17-25.24V34.5A25.21,25.21,0,0,1,68.1,9.26H366.34A25.21,25.21,0,0,1,391.51,34.5V219.92A25.21,25.21,0,0,1,366.34,245.16ZM93.26,194.69H341.18v-135H93.26Z" transform="translate(-38.74 -5.06)"/></g><g class="cls-5"><path class="cls-2" d="M366.34,244.31H68.1a24.36,24.36,0,0,1-24.33-24.39V34.5A24.36,24.36,0,0,1,68.1,10.11H366.34A24.36,24.36,0,0,1,390.67,34.5V219.92A24.36,24.36,0,0,1,366.34,244.31ZM92.42,195.53H342V58.89H92.42Z" transform="translate(-38.74 -5.06)"/></g><g class="cls-5"><path class="cls-2" d="M366.34,243.47H68.1a23.51,23.51,0,0,1-23.49-23.55V34.5A23.51,23.51,0,0,1,68.1,11H366.34A23.52,23.52,0,0,1,389.83,34.5V219.92A23.52,23.52,0,0,1,366.34,243.47ZM91.58,196.37H342.85V58.05H91.58Z" transform="translate(-38.74 -5.06)"/></g><g class="cls-6"><path class="cls-2" d="M366.34,242.63H68.1a22.68,22.68,0,0,1-22.65-22.71V34.5A22.68,22.68,0,0,1,68.1,11.79H366.34A22.68,22.68,0,0,1,389,34.5V219.92A22.68,22.68,0,0,1,366.34,242.63ZM90.74,197.21h253v-140H90.74Z" transform="translate(-38.74 -5.06)"/></g><g class="cls-6"><path class="cls-2" d="M366.34,241.79H68.1a21.84,21.84,0,0,1-21.81-21.87V34.5A21.84,21.84,0,0,1,68.1,12.63H366.34A21.84,21.84,0,0,1,388.15,34.5V219.92A21.84,21.84,0,0,1,366.34,241.79ZM89.9,198.05H344.53V56.37H89.9Z" transform="translate(-38.74 -5.06)"/></g><g class="cls-7"><path class="cls-2" d="M366.34,241H68.1a21,21,0,0,1-21-21V34.5a21,21,0,0,1,21-21H366.34a21,21,0,0,1,21,21V219.92A21,21,0,0,1,366.34,241ZM89.07,198.89h256.3V55.53H89.07Z" transform="translate(-38.74 -5.06)"/></g><g class="cls-7"><path class="cls-2" d="M366.34,240.11H68.1A20.17,20.17,0,0,1,48,219.92V34.5A20.17,20.17,0,0,1,68.1,14.31H366.34A20.16,20.16,0,0,1,386.47,34.5V219.92A20.16,20.16,0,0,1,366.34,240.11ZM88.23,199.73h258v-145h-258Z" transform="translate(-38.74 -5.06)"/></g><g class="cls-8"><path class="cls-2" d="M366.34,239.27H68.1a19.32,19.32,0,0,1-19.3-19.35V34.5A19.32,19.32,0,0,1,68.1,15.15H366.34A19.31,19.31,0,0,1,385.63,34.5V219.92A19.31,19.31,0,0,1,366.34,239.27ZM87.39,200.58H347.05V53.84H87.39Z" transform="translate(-38.74 -5.06)"/></g><g class="cls-8"><path class="cls-2" d="M366.34,238.43H68.1a18.48,18.48,0,0,1-18.46-18.51V34.5A18.48,18.48,0,0,1,68.1,16H366.34A18.48,18.48,0,0,1,384.79,34.5V219.92A18.48,18.48,0,0,1,366.34,238.43Zm-279.79-37H347.89V53H86.55Z" transform="translate(-38.74 -5.06)"/></g><g class="cls-9"><path class="cls-2" d="M366.34,237.59H68.1a17.65,17.65,0,0,1-17.62-17.67V34.5A17.65,17.65,0,0,1,68.1,16.83H366.34A17.65,17.65,0,0,1,384,34.5V219.92A17.65,17.65,0,0,1,366.34,237.59ZM85.71,202.26h263V52.16h-263Z" transform="translate(-38.74 -5.06)"/></g><g class="cls-9"><path class="cls-2" d="M366.34,236.74H68.1a16.8,16.8,0,0,1-16.78-16.82V34.5A16.8,16.8,0,0,1,68.1,17.68H366.34A16.8,16.8,0,0,1,383.12,34.5V219.92A16.8,16.8,0,0,1,366.34,236.74ZM84.87,203.1H349.56V51.32H84.87Z" transform="translate(-38.74 -5.06)"/></g><g class="cls-10"><path class="cls-2" d="M366.34,235.9H68.1a16,16,0,0,1-15.94-16V34.5a16,16,0,0,1,15.94-16H366.34a16,16,0,0,1,15.94,16V219.92A16,16,0,0,1,366.34,235.9ZM84,203.94H350.4V50.48H84Z" transform="translate(-38.74 -5.06)"/></g><g class="cls-10"><path class="cls-2" d="M366.34,235.06H68.1A15.12,15.12,0,0,1,53,219.92V34.5A15.12,15.12,0,0,1,68.1,19.36H366.34a15.12,15.12,0,0,1,15.1,15.14V219.92A15.12,15.12,0,0,1,366.34,235.06ZM83.19,204.78H351.24V49.64h-268Z" transform="translate(-38.74 -5.06)"/></g><g class="cls-11"><path class="cls-2" d="M366.34,234.22H68.1a14.28,14.28,0,0,1-14.26-14.3V34.5A14.28,14.28,0,0,1,68.1,20.2H366.34A14.28,14.28,0,0,1,380.6,34.5V219.92A14.28,14.28,0,0,1,366.34,234.22Zm-284-28.6H352.08V48.8H82.35Z" transform="translate(-38.74 -5.06)"/></g><g class="cls-11"><path class="cls-2" d="M366.34,233.38H68.1a13.45,13.45,0,0,1-13.43-13.46V34.5A13.45,13.45,0,0,1,68.1,21H366.34A13.44,13.44,0,0,1,379.76,34.5V219.92A13.44,13.44,0,0,1,366.34,233.38ZM81.52,206.46h271.4V48H81.52Z" transform="translate(-38.74 -5.06)"/></g><g class="cls-12"><path class="cls-2" d="M366.34,232.54H68.1a12.61,12.61,0,0,1-12.59-12.62V34.5A12.61,12.61,0,0,1,68.1,21.88H366.34A12.6,12.6,0,0,1,378.92,34.5V219.92A12.6,12.6,0,0,1,366.34,232.54ZM80.68,207.3H353.76V47.12H80.68Z" transform="translate(-38.74 -5.06)"/></g><g class="cls-12"><path class="cls-2" d="M366.34,231.7H68.1a11.76,11.76,0,0,1-11.75-11.78V34.5A11.76,11.76,0,0,1,68.1,22.72H366.34A11.75,11.75,0,0,1,378.08,34.5V219.92A11.75,11.75,0,0,1,366.34,231.7ZM79.84,208.15H354.6V46.27H79.84Z" transform="translate(-38.74 -5.06)"/></g><g class="cls-13"><path class="cls-2" d="M366.34,230.86H68.1a10.92,10.92,0,0,1-10.91-10.94V34.5A10.92,10.92,0,0,1,68.1,23.56H366.34A10.93,10.93,0,0,1,377.25,34.5V219.92A10.93,10.93,0,0,1,366.34,230.86ZM79,209H355.44V45.43H79Z" transform="translate(-38.74 -5.06)"/></g><g class="cls-13"><path class="cls-2" d="M366.34,230H68.1A10.08,10.08,0,0,1,58,219.92V34.5A10.08,10.08,0,0,1,68.1,24.4H366.34a10.08,10.08,0,0,1,10.07,10.1V219.92A10.08,10.08,0,0,1,366.34,230ZM78.16,209.83H356.28V44.59H78.16Z" transform="translate(-38.74 -5.06)"/></g><g class="cls-14"><path class="cls-2" d="M366.34,229.17H68.1a9.24,9.24,0,0,1-9.23-9.25V34.5a9.24,9.24,0,0,1,9.23-9.25H366.34a9.24,9.24,0,0,1,9.23,9.25V219.92A9.24,9.24,0,0,1,366.34,229.17Zm-289-18.5H357.11V43.75H77.32Z" transform="translate(-38.74 -5.06)"/></g><g class="cls-14"><path class="cls-2" d="M366.34,228.33H68.1a8.39,8.39,0,0,1-8.39-8.41V34.5a8.39,8.39,0,0,1,8.39-8.41H366.34a8.4,8.4,0,0,1,8.39,8.41V219.92A8.4,8.4,0,0,1,366.34,228.33ZM76.48,211.51H358V42.91H76.48Z" transform="translate(-38.74 -5.06)"/></g><g class="cls-15"><path class="cls-2" d="M366.34,227.49H68.1a7.56,7.56,0,0,1-7.55-7.57V34.5a7.56,7.56,0,0,1,7.55-7.57H366.34a7.56,7.56,0,0,1,7.55,7.57V219.92A7.56,7.56,0,0,1,366.34,227.49ZM75.64,212.35H358.79V42.07H75.64Z" transform="translate(-38.74 -5.06)"/></g><g class="cls-15"><path class="cls-2" d="M366.34,226.65H68.1a6.72,6.72,0,0,1-6.72-6.73V34.5a6.72,6.72,0,0,1,6.72-6.73H366.34a6.72,6.72,0,0,1,6.71,6.73V219.92A6.72,6.72,0,0,1,366.34,226.65ZM74.81,213.19H359.63v-172H74.81Z" transform="translate(-38.74 -5.06)"/></g><g class="cls-16"><path class="cls-2" d="M366.34,225.81H68.1a5.89,5.89,0,0,1-5.88-5.89V34.5a5.89,5.89,0,0,1,5.88-5.89H366.34a5.88,5.88,0,0,1,5.87,5.89V219.92A5.88,5.88,0,0,1,366.34,225.81ZM74,214h286.5V40.39H74Z" transform="translate(-38.74 -5.06)"/></g><g class="cls-16"><path class="cls-2" d="M366.34,225H68.1a5,5,0,0,1-5-5.05V34.5a5,5,0,0,1,5-5.05H366.34a5,5,0,0,1,5,5.05V219.92A5,5,0,0,1,366.34,225ZM73.13,214.87H361.31V39.54H73.13Z" transform="translate(-38.74 -5.06)"/></g><g class="cls-17"><path class="cls-2" d="M366.34,224.13H68.1a4.21,4.21,0,0,1-4.2-4.21V34.5a4.21,4.21,0,0,1,4.2-4.21H366.34a4.21,4.21,0,0,1,4.2,4.21V219.92A4.21,4.21,0,0,1,366.34,224.13Zm-294-8.41H362.15V38.7H72.29Z" transform="translate(-38.74 -5.06)"/></g><path class="cls-2" d="M366.34,223.29H68.1a3.36,3.36,0,0,1-3.36-3.37V34.5a3.36,3.36,0,0,1,3.36-3.37H366.34a3.37,3.37,0,0,1,3.36,3.37V219.92A3.37,3.37,0,0,1,366.34,223.29ZM71.45,216.56H363V37.86H71.45Z" transform="translate(-38.74 -5.06)"/><path class="cls-2" d="M366.34,222.33H68.1a2.4,2.4,0,0,1-2.4-2.41V34.5a2.4,2.4,0,0,1,2.4-2.41H366.34a2.41,2.41,0,0,1,2.4,2.41V219.92A2.41,2.41,0,0,1,366.34,222.33ZM70.49,217.52H363.94V36.9H70.49Z" transform="translate(-38.74 -5.06)"/><path class="cls-2" d="M366.34,221.36H68.1a1.43,1.43,0,0,1-1.44-1.44V34.5a1.43,1.43,0,0,1,1.44-1.44H366.34a1.43,1.43,0,0,1,1.44,1.44V219.92A1.43,1.43,0,0,1,366.34,221.36ZM69.53,218.48H364.9V35.94H69.53Z" transform="translate(-38.74 -5.06)"/><path class="cls-2" d="M366.34,220.4H68.1a.47.47,0,0,1-.48-.48V34.5A.47.47,0,0,1,68.1,34H366.34a.47.47,0,0,1,.48.48V219.92A.47.47,0,0,1,366.34,220.4Zm-297.77-1H365.86V35H68.57Z" transform="translate(-38.74 -5.06)"/><polygon class="cls-18" points="356.53 257.21 353.07 277.2 3.46 277.2 0 257.21 356.53 257.21"/><polygon class="cls-2" points="274.3 122.25 356.53 257.21 0 257.21 86.26 122.25 274.3 122.25"/></svg>