<svg id="Layer_1" data-name="Layer 1" xmlns="http://www.w3.org/2000/svg" xmlns:xlink="http://www.w3.org/1999/xlink" viewBox="0 0 331.4 223.29"><defs><style>.cls-1{opacity:0;}.cls-2{fill:#fff;}.cls-3{opacity:0.01;}.cls-4{opacity:0.01;}.cls-5{opacity:0.01;}.cls-6{opacity:0.01;}.cls-7{opacity:0.02;}.cls-8{opacity:0.02;}.cls-9{opacity:0.02;}.cls-10{opacity:0.03;}.cls-11{opacity:0.03;}.cls-12{opacity:0.03;}.cls-13{opacity:0.03;}.cls-14{opacity:0.04;}.cls-15{opacity:0.04;}.cls-16{opacity:0.04;}.cls-17{opacity:0.05;}.cls-18{fill:url(#linear-gradient);}</style><linearGradient id="linear-gradient" x1="165.7" y1="223.58" x2="165.7" y2="31.77" gradientUnits="userSpaceOnUse"><stop offset="0" stop-color="#c7c7c7"/><stop offset="0.04" stop-color="#cecece"/><stop offset="0.22" stop-color="#e5e5e5"/><stop offset="0.38" stop-color="#f2f2f2"/><stop offset="0.52" stop-color="#f7f7f7"/><stop offset="0.65" stop-color="#f0f0f0"/><stop offset="0.85" stop-color="#dbdbdb"/><stop offset="1" stop-color="#c7c7c7"/></linearGradient></defs><g class="cls-1"><path class="cls-2" d="M349.33,249.36H82.67a26.25,26.25,0,0,1-26.25-26.25V57.78A26.25,26.25,0,0,1,82.67,31.53H349.33a26.25,26.25,0,0,1,26.25,26.25V223.11A26.25,26.25,0,0,1,349.33,249.36Zm-240.41-52.5H323.08V84H108.92Z" transform="translate(-52.3 -31.53)"/></g><g class="cls-1"><path class="cls-2" d="M349.33,248.61H82.67a25.5,25.5,0,0,1-25.5-25.5V57.78a25.49,25.49,0,0,1,25.5-25.5H349.33a25.49,25.49,0,0,1,25.5,25.5V223.11A25.5,25.5,0,0,1,349.33,248.61Zm-241.16-51H323.83V83.28H108.17Z" transform="translate(-52.3 -31.53)"/></g><g class="cls-3"><path class="cls-2" d="M349.33,247.86H82.67a24.75,24.75,0,0,1-24.75-24.75V57.78A24.75,24.75,0,0,1,82.67,33H349.33a24.75,24.75,0,0,1,24.75,24.75V223.11A24.75,24.75,0,0,1,349.33,247.86Zm-241.91-49.5H324.58V82.53H107.42Z" transform="translate(-52.3 -31.53)"/></g><g class="cls-3"><path class="cls-2" d="M349.33,247.11H82.67a24,24,0,0,1-24-24V57.78a24,24,0,0,1,24-24H349.33a24,24,0,0,1,24,24V223.11A24,24,0,0,1,349.33,247.11Zm-242.66-48H325.33V81.78H106.67Z" transform="translate(-52.3 -31.53)"/></g><g class="cls-4"><path class="cls-2" d="M349.33,246.36H82.67a23.25,23.25,0,0,1-23.25-23.25V57.78A23.25,23.25,0,0,1,82.67,34.53H349.33a23.25,23.25,0,0,1,23.25,23.25V223.11A23.25,23.25,0,0,1,349.33,246.36Zm-243.41-46.5H326.08V81H105.92Z" transform="translate(-52.3 -31.53)"/></g><g class="cls-4"><path class="cls-2" d="M349.33,245.61H82.67a22.5,22.5,0,0,1-22.5-22.5V57.78a22.5,22.5,0,0,1,22.5-22.5H349.33a22.5,22.5,0,0,1,22.5,22.5V223.11A22.5,22.5,0,0,1,349.33,245.61Zm-244.16-45H326.83V80.28H105.17Z" transform="translate(-52.3 -31.53)"/></g><g class="cls-5"><path class="cls-2" d="M349.33,244.86H82.67a21.75,21.75,0,0,1-21.75-21.75V57.78A21.75,21.75,0,0,1,82.67,36H349.33a21.75,21.75,0,0,1,21.75,21.75V223.11A21.75,21.75,0,0,1,349.33,244.86Zm-244.91-43.5H327.58V79.53H104.42Z" transform="translate(-52.3 -31.53)"/></g><g class="cls-5"><path class="cls-2" d="M349.33,244.11H82.67a21,21,0,0,1-21-21V57.78a21,21,0,0,1,21-21H349.33a21,21,0,0,1,21,21V223.11A21,21,0,0,1,349.33,244.11Zm-245.66-42H328.33V78.78H103.67Z" transform="translate(-52.3 -31.53)"/></g><g class="cls-6"><path class="cls-2" d="M349.33,243.36H82.67a20.25,20.25,0,0,1-20.25-20.25V57.78A20.24,20.24,0,0,1,82.67,37.53H349.33a20.24,20.24,0,0,1,20.25,20.25V223.11A20.25,20.25,0,0,1,349.33,243.36Zm-246.41-40.5H329.08V78H102.92Z" transform="translate(-52.3 -31.53)"/></g><g class="cls-6"><path class="cls-2" d="M349.33,242.61H82.67a19.5,19.5,0,0,1-19.5-19.5V57.78a19.5,19.5,0,0,1,19.5-19.5H349.33a19.5,19.5,0,0,1,19.5,19.5V223.11A19.5,19.5,0,0,1,349.33,242.61Zm-247.16-39H329.83V77.28H102.17Z" transform="translate(-52.3 -31.53)"/></g><g class="cls-7"><path class="cls-2" d="M349.33,241.86H82.67a18.74,18.74,0,0,1-18.75-18.75V57.78A18.74,18.74,0,0,1,82.67,39H349.33a18.74,18.74,0,0,1,18.75,18.75V223.11A18.74,18.74,0,0,1,349.33,241.86Zm-247.91-37.5H330.58V76.53H101.42Z" transform="translate(-52.3 -31.53)"/></g><g class="cls-7"><path class="cls-2" d="M349.33,241.11H82.67a18,18,0,0,1-18-18V57.78a18,18,0,0,1,18-18H349.33a18,18,0,0,1,18,18V223.11A18,18,0,0,1,349.33,241.11Zm-248.66-36H331.33V75.78H100.67Z" transform="translate(-52.3 -31.53)"/></g><g class="cls-8"><path class="cls-2" d="M349.33,240.36H82.67a17.25,17.25,0,0,1-17.25-17.25V57.78A17.25,17.25,0,0,1,82.67,40.53H349.33a17.25,17.25,0,0,1,17.25,17.25V223.11A17.25,17.25,0,0,1,349.33,240.36ZM99.92,205.86H332.08V75H99.92Z" transform="translate(-52.3 -31.53)"/></g><g class="cls-8"><path class="cls-2" d="M349.33,239.61H82.67a16.5,16.5,0,0,1-16.5-16.5V57.78a16.5,16.5,0,0,1,16.5-16.5H349.33a16.5,16.5,0,0,1,16.5,16.5V223.11A16.5,16.5,0,0,1,349.33,239.61Zm-250.16-33H332.83V74.28H99.17Z" transform="translate(-52.3 -31.53)"/></g><g class="cls-9"><path class="cls-2" d="M349.33,238.86H82.67a15.75,15.75,0,0,1-15.75-15.75V57.78A15.75,15.75,0,0,1,82.67,42H349.33a15.75,15.75,0,0,1,15.75,15.75V223.11A15.75,15.75,0,0,1,349.33,238.86ZM98.42,207.36H333.58V73.53H98.42Z" transform="translate(-52.3 -31.53)"/></g><g class="cls-9"><path class="cls-2" d="M349.33,238.11H82.67a15,15,0,0,1-15-15V57.78a15,15,0,0,1,15-15H349.33a15,15,0,0,1,15,15V223.11A15,15,0,0,1,349.33,238.11Zm-251.66-30H334.33V72.78H97.67Z" transform="translate(-52.3 -31.53)"/></g><g class="cls-10"><path class="cls-2" d="M349.33,237.36H82.67a14.25,14.25,0,0,1-14.25-14.25V57.78A14.25,14.25,0,0,1,82.67,43.53H349.33a14.25,14.25,0,0,1,14.25,14.25V223.11A14.25,14.25,0,0,1,349.33,237.36ZM96.92,208.86H335.08V72H96.92Z" transform="translate(-52.3 -31.53)"/></g><g class="cls-10"><path class="cls-2" d="M349.33,236.61H82.67a13.49,13.49,0,0,1-13.5-13.5V57.78a13.49,13.49,0,0,1,13.5-13.5H349.33a13.49,13.49,0,0,1,13.5,13.5V223.11A13.49,13.49,0,0,1,349.33,236.61Zm-253.16-27H335.83V71.28H96.17Z" transform="translate(-52.3 -31.53)"/></g><g class="cls-11"><path class="cls-2" d="M349.33,235.86H82.67a12.75,12.75,0,0,1-12.75-12.75V57.78A12.75,12.75,0,0,1,82.67,45H349.33a12.75,12.75,0,0,1,12.75,12.75V223.11A12.75,12.75,0,0,1,349.33,235.86ZM95.42,210.36H336.58V70.53H95.42Z" transform="translate(-52.3 -31.53)"/></g><g class="cls-11"><path class="cls-2" d="M349.33,235.11H82.67a12,12,0,0,1-12-12V57.78a12,12,0,0,1,12-12H349.33a12,12,0,0,1,12,12V223.11A12,12,0,0,1,349.33,235.11Zm-254.66-24H337.33V69.78H94.67Z" transform="translate(-52.3 -31.53)"/></g><g class="cls-12"><path class="cls-2" d="M349.33,234.36H82.67a11.25,11.25,0,0,1-11.25-11.25V57.78A11.24,11.24,0,0,1,82.67,46.53H349.33a11.24,11.24,0,0,1,11.25,11.25V223.11A11.25,11.25,0,0,1,349.33,234.36ZM93.92,211.86H338.08V69H93.92Z" transform="translate(-52.3 -31.53)"/></g><g class="cls-12"><path class="cls-2" d="M349.33,233.61H82.67a10.5,10.5,0,0,1-10.5-10.5V57.78a10.5,10.5,0,0,1,10.5-10.5H349.33a10.5,10.5,0,0,1,10.5,10.5V223.11A10.5,10.5,0,0,1,349.33,233.61Zm-256.16-21H338.83V68.28H93.17Z" transform="translate(-52.3 -31.53)"/></g><g class="cls-13"><path class="cls-2" d="M349.33,232.86H82.67a9.74,9.74,0,0,1-9.75-9.75V57.78A9.74,9.74,0,0,1,82.67,48H349.33a9.74,9.74,0,0,1,9.75,9.75V223.11A9.74,9.74,0,0,1,349.33,232.86ZM92.42,213.36H339.58V67.53H92.42Z" transform="translate(-52.3 -31.53)"/></g><g class="cls-13"><path class="cls-2" d="M349.33,232.11H82.67a9,9,0,0,1-9-9V57.78a9,9,0,0,1,9-9H349.33a9,9,0,0,1,9,9V223.11A9,9,0,0,1,349.33,232.11Zm-257.66-18H340.33V66.78H91.67Z" transform="translate(-52.3 -31.53)"/></g><g class="cls-14"><path class="cls-2" d="M349.33,231.36H82.67a8.25,8.25,0,0,1-8.25-8.25V57.78a8.25,8.25,0,0,1,8.25-8.25H349.33a8.25,8.25,0,0,1,8.25,8.25V223.11A8.25,8.25,0,0,1,349.33,231.36ZM90.92,214.86H341.08V66H90.92Z" transform="translate(-52.3 -31.53)"/></g><g class="cls-14"><path class="cls-2" d="M349.33,230.61H82.67a7.5,7.5,0,0,1-7.5-7.5V57.78a7.5,7.5,0,0,1,7.5-7.5H349.33a7.5,7.5,0,0,1,7.5,7.5V223.11A7.5,7.5,0,0,1,349.33,230.61Zm-259.16-15H341.83V65.28H90.17Z" transform="translate(-52.3 -31.53)"/></g><g class="cls-15"><path class="cls-2" d="M349.33,229.86H82.67a6.75,6.75,0,0,1-6.75-6.75V57.78A6.75,6.75,0,0,1,82.67,51H349.33a6.75,6.75,0,0,1,6.75,6.75V223.11A6.75,6.75,0,0,1,349.33,229.86ZM89.42,216.36H342.58V64.53H89.42Z" transform="translate(-52.3 -31.53)"/></g><g class="cls-15"><path class="cls-2" d="M349.33,229.11H82.67a6,6,0,0,1-6-6V57.78a6,6,0,0,1,6-6H349.33a6,6,0,0,1,6,6V223.11A6,6,0,0,1,349.33,229.11Zm-260.66-12H343.33V63.78H88.67Z" transform="translate(-52.3 -31.53)"/></g><g class="cls-16"><path class="cls-2" d="M349.33,228.36H82.67a5.25,5.25,0,0,1-5.25-5.25V57.78a5.25,5.25,0,0,1,5.25-5.25H349.33a5.25,5.25,0,0,1,5.25,5.25V223.11A5.25,5.25,0,0,1,349.33,228.36ZM87.92,217.86H344.08V63H87.92Z" transform="translate(-52.3 -31.53)"/></g><g class="cls-16"><path class="cls-2" d="M349.33,227.61H82.67a4.49,4.49,0,0,1-4.5-4.5V57.78a4.49,4.49,0,0,1,4.5-4.5H349.33a4.49,4.49,0,0,1,4.5,4.5V223.11A4.49,4.49,0,0,1,349.33,227.61Zm-262.16-9H344.83V62.28H87.17Z" transform="translate(-52.3 -31.53)"/></g><g class="cls-17"><path class="cls-2" d="M349.33,226.86H82.67a3.75,3.75,0,0,1-3.75-3.75V57.78A3.75,3.75,0,0,1,82.67,54H349.33a3.75,3.75,0,0,1,3.75,3.75V223.11A3.75,3.75,0,0,1,349.33,226.86Zm-262.91-7.5H345.58V61.53H86.42Z" transform="translate(-52.3 -31.53)"/></g><path class="cls-2" d="M349.33,226.11H82.67a3,3,0,0,1-3-3V57.78a3,3,0,0,1,3-3H349.33a3,3,0,0,1,3,3V223.11A3,3,0,0,1,349.33,226.11Zm-263.66-6H346.33V60.78H85.67Z" transform="translate(-52.3 -31.53)"/><path class="cls-2" d="M349.33,225.25H82.67a2.14,2.14,0,0,1-2.15-2.14V57.78a2.15,2.15,0,0,1,2.15-2.15H349.33a2.15,2.15,0,0,1,2.15,2.15V223.11A2.14,2.14,0,0,1,349.33,225.25ZM84.81,221H347.19v-161H84.81Z" transform="translate(-52.3 -31.53)"/><path class="cls-2" d="M349.33,224.4H82.67a1.29,1.29,0,0,1-1.29-1.29V57.78a1.29,1.29,0,0,1,1.29-1.29H349.33a1.29,1.29,0,0,1,1.29,1.29V223.11A1.29,1.29,0,0,1,349.33,224.4ZM84,221.83h264.1V59.06H84Z" transform="translate(-52.3 -31.53)"/><path class="cls-2" d="M349.33,223.54H82.67a.43.43,0,0,1-.43-.43V57.78a.43.43,0,0,1,.43-.43H349.33a.43.43,0,0,1,.43.43V223.11A.43.43,0,0,1,349.33,223.54ZM83.1,222.68H348.9V58.21H83.1Z" transform="translate(-52.3 -31.53)"/><polygon class="cls-18" points="331.4 203.3 328.19 223.29 3.22 223.29 0 203.3 331.4 203.3"/><polygon class="cls-2" points="286.99 175.32 331.4 203.3 0 203.3 44.42 175.32 286.99 175.32"/></svg>